HIERARCHY
ROOT pelvis
{
	OFFSET 0.000000 0.000000 0.706328
	CHANNELS 6 Xposition Yposition Zposition Xrotation Yrotation Zrotation
	JOINT spine
	{
		OFFSET 0.000000 0.000000 0.000000
		CHANNELS 6 Xposition Yposition Zposition Xrotation Yrotation Zrotation
		JOINT spine.001
		{
			OFFSET 0.000000 -0.013396 0.255602
			CHANNELS 3 Xrotation Yrotation Zrotation
			JOINT neck
			{
				OFFSET 0.000000 0.031193 0.254045
				CHANNELS 6 Xposition Yposition Zposition Xrotation Yrotation Zrotation
				JOINT face
				{
					OFFSET 0.000000 0.003460 0.198226
					CHANNELS 6 Xposition Yposition Zposition Xrotation Yrotation Zrotation
					End Site
					{
						OFFSET -0.000000 -0.031132 -0.007375
					}
				}
			}
			JOINT shoulder.L
			{
				OFFSET 0.000000 0.031193 0.254045
				CHANNELS 6 Xposition Yposition Zposition Yrotation Xrotation Zrotation
				JOINT upper_arm.L
				{
					OFFSET 0.162157 0.000000 0.000000
					CHANNELS 6 Xposition Yposition Zposition Xrotation Yrotation Zrotation
					JOINT forearm.L
					{
						OFFSET 0.251056 0.000111 0.000918
						CHANNELS 6 Xposition Yposition Zposition Xrotation Yrotation Zrotation
						End Site
						{
							OFFSET 0.224102 -0.003810 -0.001264
						}
					}
				}
			}
			JOINT shoulder.R
			{
				OFFSET 0.000000 0.031193 0.254045
				CHANNELS 6 Xposition Yposition Zposition Yrotation Xrotation Zrotation
				JOINT upper_arm.R
				{
					OFFSET -0.162157 0.000000 0.000000
					CHANNELS 6 Xposition Yposition Zposition Xrotation Yrotation Zrotation
					JOINT forearm.R
					{
						OFFSET -0.248610 0.000111 0.000918
						CHANNELS 6 Xposition Yposition Zposition Xrotation Yrotation Zrotation
						End Site
						{
							OFFSET -0.225983 -0.003843 -0.001264
						}
					}
				}
			}
		}
	}
	JOINT pelvis.L
	{
		OFFSET 0.000000 0.000000 0.000000
		CHANNELS 6 Xposition Yposition Zposition Yrotation Xrotation Zrotation
		End Site
		{
			OFFSET 0.102836 0.000000 0.000000
		}
	}
	JOINT pelvis.R
	{
		OFFSET 0.000000 0.000000 0.000000
		CHANNELS 6 Xposition Yposition Zposition Yrotation Xrotation Zrotation
		End Site
		{
			OFFSET -0.102836 0.000000 0.000000
		}
	}
	JOINT thigh.L
	{
		OFFSET 0.102836 0.000000 0.000000
		CHANNELS 6 Xposition Yposition Zposition Xrotation Yrotation Zrotation
		JOINT shin.L
		{
			OFFSET 0.017173 0.000000 -0.327671
			CHANNELS 6 Xposition Yposition Zposition Xrotation Yrotation Zrotation
			JOINT foot.L
			{
				OFFSET 0.015946 0.000000 -0.304272
				CHANNELS 3 Xrotation Yrotation Zrotation
				End Site
				{
					OFFSET 0.014600 -0.148863 -0.062510
				}
			}
			JOINT heel.02.L
			{
				OFFSET 0.015946 0.000000 -0.304272
				CHANNELS 3 Xrotation Yrotation Zrotation
				End Site
				{
					OFFSET -0.076478 0.033009 -0.077627
				}
			}
		}
	}
	JOINT thigh.R
	{
		OFFSET -0.102836 0.000000 0.000000
		CHANNELS 6 Xposition Yposition Zposition Xrotation Yrotation Zrotation
		JOINT shin.R
		{
			OFFSET -0.017552 0.000000 -0.334915
			CHANNELS 6 Xposition Yposition Zposition Xrotation Yrotation Zrotation
			JOINT foot.R
			{
				OFFSET -0.016394 0.000000 -0.312820
				CHANNELS 3 Xrotation Yrotation Zrotation
				End Site
				{
					OFFSET -0.015645 -0.159522 -0.066986
				}
			}
			JOINT heel.02.R
			{
				OFFSET -0.016394 0.000000 -0.312820
				CHANNELS 3 Xrotation Yrotation Zrotation
				End Site
				{
					OFFSET 0.070609 0.033009 -0.061483
				}
			}
		}
	}
}
MOTION
Frames: 4
Frame Time: 0.041667
0.022587 0.041600 0.707372 -0.000000 0.000000 -3.521523 0.000000 -0.000000 0.000000 -8.972830 1.426898 0.187520 9.983574 0.479428 3.907608 -0.000000 0.031193 0.254045 7.097479 -2.651428 0.281844 -0.000000 0.003460 0.198226 3.608575 0.000000 -0.000002 0.000000 0.031193 0.254045 -0.337084 0.000121 0.041315 0.162157 0.000000 -0.000000 59.558102 74.757185 -73.608464 0.251056 0.000111 0.000918 8.592801 29.261968 -30.747104 0.000000 0.031193 0.254045 -0.286579 0.000088 0.035182 -0.162157 0.000000 -0.000000 49.046666 -73.408640 62.869665 -0.248610 0.000111 0.000918 11.457233 -37.796833 31.138716 0.000000 -0.000000 0.000000 1.586906 0.000002 -0.000109 0.000000 -0.000000 0.000000 1.586938 -0.000000 -0.000000 0.102796 -0.000000 -0.002848 -0.227211 3.325299 -0.005321 0.017173 0.000000 -0.327671 4.955277 3.261899 0.118853 -2.976583 -5.937720 12.338738 1.251897 -29.104508 -17.955099 -0.102796 0.000000 0.002848 -1.135848 2.570502 0.084914 -0.017552 -0.000000 -0.334915 9.053045 -4.511915 -0.118301 -12.487005 6.398387 -9.107954 -9.442877 33.695997 17.349393 
0.024268 0.041773 0.706865 -0.000000 0.000000 -3.466823 0.000000 -0.000000 0.000000 -8.945582 1.298778 0.170367 9.983554 0.479154 3.905386 -0.000000 0.031193 0.254045 6.910096 -2.601984 -0.796548 -0.000000 0.003460 0.198226 3.736282 -0.000000 -0.000000 -0.000000 0.031193 0.254045 -0.493267 0.000261 0.060628 0.162157 0.000000 -0.000000 60.382110 74.982486 -74.300464 0.251056 0.000111 0.000918 8.813253 29.789054 -30.944445 -0.000000 0.031193 0.254045 -0.442764 0.000211 0.054390 -0.162157 0.000000 -0.000000 48.493264 -73.433222 62.194419 -0.248610 0.000111 0.000918 11.615172 -37.591964 31.761691 0.000000 -0.000000 -0.000000 1.448905 0.000000 -0.000028 0.000000 -0.000000 -0.000000 1.448938 -0.000000 0.000000 0.102803 0.000000 -0.002600 -0.134002 3.596108 -0.002821 0.017173 0.000000 -0.327671 4.881046 3.387989 0.111691 -3.453658 -6.380522 13.043301 1.135409 -28.408816 -17.308225 -0.102803 -0.000000 0.002600 -1.060043 2.294738 0.076707 -0.017552 0.000000 -0.334915 9.227278 -3.565743 -0.197110 -12.896751 6.353814 -8.875912 -7.191851 30.585597 16.025082 
0.025536 0.041970 0.706387 -0.000000 0.000000 -3.413229 0.000000 0.000000 0.000000 -8.916559 1.206230 0.157915 9.983771 0.477117 3.888848 -0.000000 0.031193 0.254045 6.784185 -2.582629 -1.487144 -0.000000 0.003460 0.198226 3.831839 -0.000000 0.000000 -0.000000 0.031193 0.254045 -0.606372 0.000394 0.074450 0.162157 0.000000 -0.000000 60.960927 75.158766 -74.765710 0.251056 0.000111 0.000918 8.992969 30.156928 -31.167441 -0.000000 0.031193 0.254045 -0.555911 0.000331 0.068257 -0.162157 0.000000 -0.000000 48.003761 -73.446315 61.603949 -0.248610 0.000111 0.000918 11.757980 -37.457413 32.281718 0.000000 0.000000 0.000000 1.332041 0.000001 -0.000070 0.000000 0.000000 0.000000 1.332041 -0.000000 0.000000 0.102808 -0.000000 -0.002391 -0.092459 3.840442 -0.001749 0.017173 0.000000 -0.327671 4.873315 3.383325 0.111713 -3.685211 -6.627199 13.445740 1.045772 -27.966153 -16.887704 -0.102808 0.000000 0.002391 -1.029185 2.154437 0.073219 -0.017552 -0.000000 -0.334915 9.395398 -3.070189 -0.241484 -13.173481 6.370281 -8.802034 -6.034531 28.735354 15.214974 
0.026347 0.042176 0.706010 -0.000000 0.000000 -3.360293 -0.000000 0.000000 -0.000000 -8.888487 1.151929 0.150519 9.983908 0.473419 3.858519 -0.000000 0.031193 0.254045 6.726977 -2.593306 -1.802940 -0.000000 0.003460 0.198226 3.891514 -0.000000 0.000001 -0.000000 0.031193 0.254045 -0.669856 0.000481 0.082102 0.162157 0.000000 -0.000000 61.290662 75.268350 -75.020599 0.251056 0.000111 0.000918 9.110374 30.331456 -31.382612 -0.000000 0.031193 0.254045 -0.619435 0.000411 0.076013 -0.162157 0.000000 -0.000000 47.616070 -73.445625 61.145506 -0.248610 0.000111 0.000918 11.876766 -37.401853 32.662518 -0.000000 -0.000000 0.000000 1.248864 0.000002 -0.000151 -0.000000 -0.000000 0.000000 1.248897 -0.000000 0.000000 0.102811 -0.000000 -0.002241 -0.102149 4.048996 -0.001746 0.017173 0.000000 -0.327671 4.925468 3.240779 0.119047 -3.658662 -6.663810 13.536682 0.984956 -27.808603 -16.713710 -0.102811 -0.000000 0.002241 -1.040139 2.149762 0.073956 -0.017552 -0.000000 -0.334915 9.549856 -3.030209 -0.248816 -13.302394 6.435969 -8.868506 -5.815582 28.144481 14.804727 
